<svg width="53" height="53" viewBox="0 0 53 53" fill="none" xmlns="http://www.w3.org/2000/svg">
<path fill-rule="evenodd" clip-rule="evenodd" d="M26.5 0C11.8644 0 0 11.8644 0 26.5C0 41.1354 11.8644 53 26.5 53C41.1354 53 53 41.1354 53 26.5C53 11.8644 41.1354 0 26.5 0ZM16.6762 16.6762C17.7111 15.6413 19.3889 15.6413 20.4238 16.6762L26.5 22.7524L32.5762 16.6762C33.611 15.6413 35.289 15.6413 36.3238 16.6762C37.3586 17.7111 37.3586 19.3889 36.3238 20.4238L30.2476 26.5L36.3238 32.5762C37.3586 33.611 37.3586 35.289 36.3238 36.3238C35.289 37.3586 33.611 37.3586 32.5762 36.3238L26.5 30.2476L20.4238 36.3238C19.3889 37.3586 17.7111 37.3586 16.6762 36.3238C15.6413 35.289 15.6413 33.611 16.6762 32.5762L22.7524 26.5L16.6762 20.4238C15.6413 19.3889 15.6413 17.7111 16.6762 16.6762Z" fill="#FFB000"/>
</svg>
