<svg width="53" height="53" viewBox="0 0 53 53" fill="none" xmlns="http://www.w3.org/2000/svg">
<path d="M26.5 0C11.8832 0 0 11.8832 0 26.5C0 41.1168 11.8832 53 26.5 53C41.1168 53 53 41.1168 53 26.5C53 11.8832 41.1168 0 26.5 0ZM23.5988 12.1063C24.3242 11.2696 25.3843 10.8233 26.5 10.8233C28.6201 10.8233 30.4052 12.5526 30.4052 14.7284V15.2304L28.3967 31.4094C27.783 31.242 27.1694 31.1304 26.5 31.1304C25.8863 31.1304 25.2726 31.186 24.6589 31.3533L22.5948 15.1744C22.4832 14.1147 22.8739 12.999 23.5988 12.1063ZM26.5 42.1768C24.3242 42.1768 22.5948 40.3914 22.5948 38.2156C22.5948 36.0398 24.3242 34.3104 26.5 34.3104C28.6758 34.3104 30.4613 36.0398 30.4613 38.2156C30.4052 40.3918 28.6758 42.1768 26.5 42.1768Z" fill="#FD7E14"/>
</svg>
