<svg width="54" height="38" viewBox="0 0 54 38" fill="none" xmlns="http://www.w3.org/2000/svg">
<path d="M25.6923 0.00587463C25.2544 0.0368767 24.1667 0.16433 23.6935 0.243557C19.1554 0.994492 14.9493 3.36096 12.0146 6.8125L11.7321 7.14319L11.3754 7.1673C10.6196 7.21552 9.84623 7.33609 9.11167 7.51521C6.99626 8.03535 4.84908 9.26165 3.35876 10.8048C0.561772 13.6949 -0.564794 17.5977 0.268653 21.497C0.999685 24.921 3.36936 27.9385 6.57601 29.5334C8.14402 30.3119 9.64846 30.7184 11.3754 30.832L11.7321 30.8561L12.0146 31.1868C13.4414 32.8678 15.253 34.3559 17.2484 35.4823C17.8664 35.8337 19.1483 36.4399 19.7946 36.6879C20.2537 36.8671 21.3944 37.246 21.6416 37.3045L21.737 37.3252V24.9417V12.5582H22.807H23.8806L26.0137 15.1658C27.1862 16.6022 28.6835 18.4313 29.3369 19.2339L30.5305 20.691V10.4811V0.271114L30.0114 0.198776C28.899 0.0403214 28.4999 0.012764 27.1756 0.00242996C26.4657 -0.00101471 25.7983 -0.00101471 25.6923 0.00587463ZM13.2612 12.3343C14.9564 12.5306 16.309 13.192 17.5521 14.4183L17.9052 14.7662L16.9764 15.6618L16.0441 16.5574L15.917 16.4093C15.2707 15.6584 14.6138 15.2002 13.8051 14.9384C13.2542 14.7593 12.9328 14.718 12.2371 14.7386C11.725 14.7524 11.559 14.7696 11.273 14.842C10.0793 15.1486 9.07988 15.9305 8.5219 16.988C8.22171 17.5564 8.09105 17.9904 8.03807 18.6139C7.87562 20.4016 8.79736 22.0447 10.3972 22.8267C10.768 23.0058 11.2235 23.1574 11.5979 23.2194C11.944 23.2814 12.7845 23.2883 13.1765 23.2331C14.0806 23.1126 14.9564 22.6579 15.4473 22.0516C15.7686 21.6589 16.0618 21.0906 16.1712 20.6462L16.1924 20.5498L13.9605 20.5429L11.725 20.5325L11.7144 19.4199L11.7074 18.3107H15.3449H18.9824V18.8757C18.9824 19.8643 18.8764 20.5704 18.608 21.3696C18.0571 23.0196 16.9517 24.2906 15.4331 25.0278C14.4231 25.5169 13.5261 25.7167 12.3642 25.7167C9.65199 25.7167 7.16578 24.2149 6.00037 21.8725C4.7396 19.3372 5.27993 16.3094 7.35295 14.2943C8.49011 13.192 9.9663 12.4996 11.5661 12.3205C11.9828 12.2757 12.8163 12.2792 13.2612 12.3343Z" fill="#3054E5"/>
<path d="M33.2508 13.2282V25.474H32.1666H31.0789L29.1683 23.1385C28.1159 21.8571 26.6185 20.0245 25.838 19.0704L24.4219 17.3377V27.5993V37.8644L25.0328 37.9298C25.891 38.0228 28.0912 38.0228 28.9423 37.9333C31.6298 37.6473 33.9112 36.9688 36.1996 35.7803C38.3786 34.6471 40.4128 33.0315 41.9843 31.1852L42.2668 30.8545L42.6235 30.8304C44.2833 30.7236 45.8196 30.3171 47.2675 29.611C50.6896 27.9403 53.0946 24.847 53.8009 21.2026C54.0658 19.8316 54.0658 18.1644 53.8009 16.7934C52.8226 11.7505 48.5954 7.8718 43.3863 7.23799C43.1638 7.21043 42.8213 7.17943 42.6235 7.16565L42.2668 7.14153L41.9737 6.79707C39.8336 4.28248 37.026 2.35003 33.7699 1.14785C33.5192 1.05828 33.3002 0.982502 33.2825 0.982502C33.2649 0.982502 33.2508 5.7499 33.2508 13.2282ZM42.7083 12.5944C45.1945 12.8562 47.0945 14.0756 48.0268 16.0046C48.44 16.8623 48.6342 17.6753 48.6731 18.7224C48.7719 21.4678 47.5571 23.6621 45.3463 24.7299C44.6577 25.064 44.1385 25.2259 43.2627 25.3775C42.8531 25.4498 42.7295 25.4533 39.7771 25.4671L36.7117 25.4774V19.0187V12.5565H39.5369C41.2815 12.5565 42.4964 12.5703 42.7083 12.5944Z" fill="#3054E5"/>
<path d="M39.4277 19.0174V23.0718L40.9039 23.0546C41.7621 23.0442 42.4861 23.0201 42.6379 22.996C43.5314 22.8582 44.2801 22.5344 44.8204 22.0522C45.4031 21.5355 45.8057 20.7053 45.9258 19.7856C45.9788 19.3688 45.9682 18.5972 45.9046 18.1838C45.7316 17.0299 45.2124 16.1721 44.3543 15.6279C44.0647 15.4453 43.5914 15.2386 43.2736 15.1594C42.6803 15.0079 42.5567 14.9975 40.9746 14.9803L39.4277 14.9631V19.0174Z" fill="#3054E5"/>
</svg>
