<svg width="50" height="50" viewBox="0 0 50 50" fill="none" xmlns="http://www.w3.org/2000/svg">
<rect width="50" height="50" rx="25" fill="#3054E5" fill-opacity="0.1"/>
<g clip-path="url(#clip0_4862_4760)">
<path fill-rule="evenodd" clip-rule="evenodd" d="M19 21V23C17.3432 23 16 24.3431 16 26V32C16 33.6569 17.3432 35 19 35H31C32.6569 35 34 33.6569 34 32V26C34 24.3431 32.6569 23 31 23V21C31 17.6863 28.3137 15 25 15C21.6863 15 19 17.6863 19 21ZM29 21V23H21V21C21 18.7909 22.7909 17 25 17C27.2091 17 29 18.7909 29 21ZM21 30C21.5523 30 22 29.5523 22 29C22 28.4477 21.5523 28 21 28C20.4477 28 20 28.4477 20 29C20 29.5523 20.4477 30 21 30ZM26 29C26 29.5523 25.5523 30 25 30C24.4477 30 24 29.5523 24 29C24 28.4477 24.4477 28 25 28C25.5523 28 26 28.4477 26 29ZM29 30C29.5523 30 30 29.5523 30 29C30 28.4477 29.5523 28 29 28C28.4477 28 28 28.4477 28 29C28 29.5523 28.4477 30 29 30Z" fill="#3054E5"/>
</g>
<defs>
<clipPath id="clip0_4862_4760">
<rect width="24" height="24" fill="white" transform="translate(13 13)"/>
</clipPath>
</defs>
</svg>
