<svg width="96" height="96" viewBox="0 0 96 96" fill="none" xmlns="http://www.w3.org/2000/svg">
<path d="M95.4477 49.3284L94.06 45.706C93.5262 44.321 93.3127 42.7229 93.633 41.2313L94.2735 37.3959C94.7005 34.6258 93.7397 31.8557 91.8182 29.938L89.1494 27.1679C88.0819 26.1025 87.3347 24.7175 86.9077 23.2259L85.9469 19.497C85.1997 16.8335 83.2781 14.5961 80.6094 13.6372L77.0866 12.2522C75.6988 11.7195 74.4178 10.7606 73.4571 9.58868L71.1085 6.60553C69.2938 4.47472 66.625 3.30277 63.8495 3.40931L60.1132 3.62239C58.6187 3.72893 57.0174 3.40931 55.6297 2.66352L52.2136 0.958868C49.7584 -0.319623 46.7693 -0.319623 44.2073 0.958868L40.898 2.77006C39.5103 3.51585 38.0158 3.83547 36.4145 3.72893L32.6782 3.51585C29.9027 3.40931 27.2339 4.58126 25.4192 6.71208L23.0706 9.69522C22.1099 10.8672 20.8289 11.826 19.4411 12.3587L15.9183 13.7438C13.2495 14.7026 11.328 16.94 10.5808 19.6035L9.19302 23.439C8.76601 24.9306 8.01876 26.3156 6.95125 27.381L4.17572 30.0445C2.25421 31.9623 1.29345 34.7323 1.72045 37.5024L2.36096 41.3379C2.57446 42.8294 2.46771 44.4276 1.93395 45.8126L0.546192 49.435C-0.414566 51.992 -0.0943132 54.9751 1.4002 57.319L3.53522 60.6218C4.38922 61.9003 4.81623 63.3918 4.92298 64.8834L5.13648 68.7189C5.24323 71.4889 6.73774 74.0459 9.08626 75.5375L12.2888 77.6683C13.5698 78.5206 14.6373 79.6926 15.2778 81.0776L17.0926 84.4869C18.3736 86.9374 20.7221 88.7486 23.4976 89.1747L27.1272 89.814C28.6217 90.0271 30.1162 90.6663 31.2905 91.6252L34.2795 94.0756C36.4145 95.8868 39.4035 96.4195 42.0723 95.6737L45.7018 94.7149C47.1963 94.2887 48.7976 94.2887 50.2921 94.7149L53.9216 95.6737C56.5904 96.4195 59.5794 95.7803 61.7145 94.0756L64.7035 91.6252C65.8777 90.6663 67.3723 90.0271 68.8668 89.814L72.6031 89.1747C75.3786 88.7486 77.7271 87.0439 79.0081 84.4869L80.8229 81.0776C81.4634 79.6926 82.5309 78.5206 83.8119 77.6683L87.0144 75.5375C89.3629 74.0459 90.8575 71.4889 90.9642 68.7189L91.1777 64.8834C91.2845 63.3918 91.7115 61.9003 92.5655 60.6218L94.7005 57.319C96.0883 54.8686 96.4085 51.992 95.4477 49.3284ZM42.179 66.1619L23.9246 47.9434L30.5432 41.3379L42.179 52.9508L65.344 29.8314L71.9625 36.437L42.179 66.1619Z" fill="#18C07A"/>
</svg>
