<svg width="67" height="67" viewBox="0 0 67 67" fill="none" xmlns="http://www.w3.org/2000/svg">
<path d="M33.5 1C51.4493 1 66 15.5507 66 33.5C66 51.4493 51.4493 66 33.5 66C15.5507 66 1 51.4493 1 33.5C1 15.5507 15.5507 1 33.5 1Z" stroke="#278400" stroke-width="2"/>
<path d="M33.5 3.5C50.0685 3.5 63.5 16.9315 63.5 33.5C63.5 50.0685 50.0685 63.5 33.5 63.5C16.9315 63.5 3.5 50.0685 3.5 33.5C3.5 16.9315 16.9315 3.5 33.5 3.5Z" stroke="#278400"/>
<path d="M33.5 14.5C43.9934 14.5 52.5 23.0066 52.5 33.5C52.5 43.9934 43.9934 52.5 33.5 52.5C23.0066 52.5 14.5 43.9934 14.5 33.5C14.5 23.0066 23.0066 14.5 33.5 14.5Z" stroke="#278400"/>
<path d="M54.2616 48.5936L55.0941 47.4681C55.2561 47.5537 55.4175 47.6059 55.5783 47.6249C55.7409 47.6452 55.8995 47.635 56.0542 47.5943C56.2088 47.5536 56.3559 47.4837 56.4954 47.3848C56.6336 47.2875 56.7584 47.1635 56.8699 47.0127C57.0714 46.7404 57.1787 46.4538 57.1918 46.1531C57.2066 45.8536 57.1257 45.5546 56.949 45.256C56.7741 44.9587 56.5027 44.6771 56.1349 44.4112C55.7567 44.1379 55.3978 43.9639 55.0582 43.8893C54.7172 43.8164 54.4064 43.8335 54.1256 43.9408C53.8449 44.0481 53.6063 44.2345 53.4099 44.5C53.2997 44.649 53.2175 44.8013 53.1635 44.9567C53.1082 45.1139 53.0817 45.2696 53.0842 45.4239C53.0884 45.5794 53.1217 45.7297 53.1841 45.8746C53.2452 46.0213 53.3371 46.1587 53.4596 46.2867L52.622 47.4084C52.4 47.2033 52.219 46.9608 52.079 46.6808C51.9394 46.4037 51.8529 46.1033 51.8195 45.7795C51.7865 45.4586 51.8177 45.1262 51.913 44.7824C52.0088 44.4415 52.1815 44.1024 52.4311 43.7649C52.7783 43.2956 53.1958 42.9533 53.6836 42.738C54.1702 42.5245 54.6956 42.4574 55.2598 42.5366C55.8227 42.6175 56.3925 42.8664 56.9693 43.2833C57.5478 43.7014 57.9601 44.165 58.2062 44.6742C58.4524 45.1833 58.5448 45.6997 58.4835 46.2232C58.4239 46.748 58.2231 47.2416 57.881 47.7041C57.6554 48.009 57.4032 48.2605 57.1243 48.4584C56.8441 48.6581 56.5463 48.7991 56.231 48.8814C55.9175 48.965 55.5946 48.984 55.2626 48.9385C54.9292 48.8947 54.5956 48.7797 54.2616 48.5936Z" fill="#278400"/>
<path d="M49.9236 47.6546L53.8499 52.8917L50.2913 55.4973L49.6069 54.5844L52.0489 52.7964L51.1133 51.5484L48.8544 53.2024L48.17 52.2895L50.4289 50.6355L49.4915 49.3851L47.0391 51.1807L46.3547 50.2678L49.9236 47.6546Z" fill="#278400"/>
<path d="M44.7456 51.7255L46.9912 57.8737L44.5587 58.7408C44.0931 58.9068 43.6654 58.9654 43.2755 58.9166C42.8845 58.8705 42.5474 58.7271 42.2644 58.4865C41.9802 58.2485 41.7639 57.9264 41.6155 57.5201C41.4663 57.1118 41.4264 56.7291 41.4955 56.372C41.5654 56.0168 41.7394 55.7014 42.0176 55.4258C42.2937 55.151 42.6686 54.9291 43.1423 54.7603L44.7709 54.1797L45.1525 55.2245L43.7346 55.7299C43.4857 55.8186 43.2914 55.9263 43.1517 56.053C43.012 56.1797 42.9268 56.3254 42.8963 56.4901C42.8637 56.6556 42.8843 56.8394 42.9581 57.0415C43.0327 57.2456 43.1367 57.4031 43.2702 57.5138C43.4016 57.6253 43.5638 57.6874 43.7567 57.7001C43.9483 57.7155 44.1695 57.6784 44.4204 57.589L45.2995 57.2757L43.442 52.1902L44.7456 51.7255ZM42.4379 55.7103L39.8836 53.4586L41.3227 52.9457L43.8438 55.2092L42.4379 55.7103Z" fill="#278400"/>
<path d="M39.1407 59.5588L39.2011 60.6981L33.8325 60.9743L33.7721 59.8349L35.7733 59.732L35.4869 54.3351L36.853 54.2648L37.1394 59.6617L39.1407 59.5588Z" fill="#278400"/>
<path d="M30.1005 60.7968L30.924 54.3033L32.2973 54.474L31.4738 60.9674L30.1005 60.7968Z" fill="#278400"/>
<path d="M28.6438 54.3425L26.1311 60.3865L22.1162 58.7546L22.5542 57.701L25.287 58.8118L25.8858 57.3717L23.4194 56.3692L23.8574 55.3156L26.3238 56.3181L27.3617 53.8214L28.6438 54.3425Z" fill="#278400"/>
<path d="M18.1188 56.7373L21.6404 51.22L22.8146 51.9524L19.293 57.4697L18.1188 56.7373Z" fill="#278400"/>
<path d="M19.6084 50.3518L14.7528 54.7411L11.7572 51.5041L12.6036 50.7389L14.6593 52.9603L15.8163 51.9144L13.9147 49.8596L14.7611 49.0944L16.6627 51.1493L17.822 50.1013L15.7577 47.8705L16.6041 47.1053L19.6084 50.3518Z" fill="#278400"/>
<path d="M13.8096 43.6046L14.7476 45.7268L8.73762 48.3198L7.79187 46.18C7.52572 45.5778 7.41692 45.0075 7.46547 44.4691C7.51207 43.9315 7.70769 43.4492 8.05234 43.022C8.39613 42.5929 8.88006 42.2438 9.50414 41.9745C10.1302 41.7044 10.7203 41.5902 11.2745 41.6319C11.8278 41.6716 12.3217 41.8588 12.7561 42.1935C13.1897 42.5262 13.5408 42.9965 13.8096 43.6046ZM13.0994 44.9308L12.7441 44.1269C12.5787 43.7527 12.3731 43.4667 12.1272 43.2688C11.8786 43.0698 11.5849 42.9668 11.2464 42.9597C10.905 42.9515 10.5103 43.0441 10.0623 43.2373C9.61819 43.4289 9.28414 43.6508 9.06013 43.9029C8.83527 44.1531 8.71273 44.4345 8.69254 44.7472C8.67234 45.0599 8.74493 45.4033 8.9103 45.7775L9.2669 46.5843L13.0994 44.9308Z" fill="#278400"/>
<path d="M12.5776 19.0355L11.7649 20.1753C11.6014 20.0926 11.4391 20.0432 11.278 20.027C11.1151 20.0096 10.9567 20.0226 10.8027 20.066C10.6488 20.1093 10.503 20.1817 10.3653 20.2831C10.2288 20.3828 10.1061 20.509 9.99727 20.6616C9.80058 20.9375 9.69832 21.2259 9.69047 21.5268C9.68088 21.8265 9.767 22.124 9.94885 22.4195C10.1289 22.7137 10.4052 22.9905 10.7776 23.2499C11.1605 23.5166 11.5224 23.6843 11.8633 23.753C12.2054 23.82 12.5159 23.7974 12.7948 23.6852C13.0736 23.5731 13.3089 23.3825 13.5006 23.1136C13.6082 22.9627 13.6877 22.809 13.739 22.6527C13.7916 22.4945 13.8153 22.3384 13.8101 22.1842C13.8032 22.0287 13.7673 21.8791 13.7024 21.7352C13.6387 21.5896 13.5445 21.4539 13.4197 21.328L14.2377 20.1919C14.4631 20.3931 14.6483 20.6324 14.7933 20.9099C14.9377 21.1845 15.0294 21.4834 15.0685 21.8066C15.107 22.1268 15.0816 22.4597 14.9923 22.8051C14.9025 23.1476 14.7357 23.4897 14.4921 23.8315C14.1531 24.3068 13.7417 24.6564 13.2577 24.8801C12.7749 25.102 12.2508 25.1784 11.6853 25.109C11.1211 25.038 10.547 24.799 9.96302 24.3923C9.37733 23.9843 8.95698 23.5279 8.70198 23.0232C8.44699 22.5184 8.34556 22.0037 8.39771 21.4792C8.44811 20.9535 8.6403 20.4564 8.97429 19.988C9.19448 19.6792 9.44229 19.4234 9.71773 19.2206C9.99441 19.0161 10.2897 18.8699 10.6035 18.7821C10.9155 18.6931 11.238 18.6684 11.5708 18.7081C11.9048 18.7461 12.2404 18.8552 12.5776 19.0355Z" fill="#278400"/>
<path d="M16.9316 19.8984L12.9146 14.7306L16.4271 12.0633L17.1273 12.9641L14.7169 14.7945L15.6741 16.0259L17.9038 14.3327L18.6041 15.2335L16.3744 16.9267L17.3335 18.1606L19.7541 16.3225L20.4544 17.2233L16.9316 19.8984Z" fill="#278400"/>
<path d="M22.0377 15.7373L19.6852 9.62925L22.1021 8.71985C22.5648 8.54577 22.9914 8.47972 23.382 8.5217C23.7739 8.56093 24.1134 8.6984 24.4005 8.93411C24.6889 9.16708 24.9108 9.48537 25.0662 9.889C25.2225 10.2946 25.2691 10.6766 25.2062 11.0349C25.1425 11.3912 24.974 11.7096 24.7007 11.99C24.4294 12.2696 24.0585 12.498 23.5878 12.675L21.9695 13.2839L21.5698 12.246L22.9787 11.7159C23.226 11.6229 23.4183 11.5118 23.5558 11.3827C23.6933 11.2535 23.7759 11.1064 23.8036 10.9411C23.8333 10.7752 23.8095 10.5918 23.7321 10.391C23.654 10.1882 23.5473 10.0325 23.4119 9.92413C23.2785 9.81496 23.1153 9.75573 22.9222 9.74643C22.7303 9.73439 22.5098 9.77526 22.2605 9.86905L21.387 10.1977L23.333 15.25L22.0377 15.7373ZM24.2755 11.7129L26.8687 13.9196L25.4388 14.4576L22.8786 12.2385L24.2755 11.7129Z" fill="#278400"/>
<path d="M27.5056 7.8068L27.4253 6.66865L32.7882 6.29885L32.8686 7.437L30.8694 7.57485L31.25 12.9659L29.8853 13.06L29.5048 7.66895L27.5056 7.8068Z" fill="#278400"/>
<path d="M36.5222 6.41269L35.8121 12.9195L34.436 12.7728L35.1461 6.26599L36.5222 6.41269Z" fill="#278400"/>
<path d="M38.0914 12.8401L40.4982 6.75319L44.5409 8.31478L44.1214 9.37583L41.3696 8.31289L40.7961 9.76328L43.2795 10.7226L42.86 11.7836L40.3765 10.8243L39.3823 13.3387L38.0914 12.8401Z" fill="#278400"/>
<path d="M48.573 10.2602L45.1482 15.8382L43.9614 15.1264L47.3862 9.54842L48.573 10.2602Z" fill="#278400"/>
<path d="M47.1956 16.671L51.9739 12.1976L55.0255 15.3819L54.1926 16.1617L52.0984 13.9766L50.9599 15.0425L52.897 17.0638L52.0641 17.8436L50.127 15.8223L48.9861 16.8904L51.0891 19.0848L50.2561 19.8646L47.1956 16.671Z" fill="#278400"/>
<path d="M53.1119 23.3191L52.137 21.2135L58.1008 18.5161L59.0837 20.639C59.3603 21.2365 59.4791 21.8048 59.4399 22.344C59.4027 22.8823 59.2155 23.368 58.8784 23.8011C58.5421 24.2361 58.0644 24.5937 57.4451 24.8738C56.8239 25.1548 56.2358 25.2793 55.681 25.2473C55.1271 25.2172 54.63 25.0387 54.1898 24.7116C53.7505 24.3865 53.3912 23.9224 53.1119 23.3191ZM53.7988 21.9807L54.168 22.7782C54.3399 23.1495 54.5505 23.4319 54.7998 23.6255C55.0519 23.8201 55.3473 23.918 55.6859 23.9192C56.0274 23.9214 56.4204 23.822 56.865 23.6209C57.3057 23.4215 57.6358 23.1939 57.8554 22.9379C58.0758 22.6839 58.1934 22.4003 58.2082 22.0873C58.2229 21.7743 58.1443 21.4322 57.9725 21.061L57.6018 20.2605L53.7988 21.9807Z" fill="#278400"/>
<path d="M9 27L9.67354 29.0729H11.8532L10.0898 30.3541L10.7634 32.4271L9 31.1459L7.23664 32.4271L7.91019 30.3541L6.14683 29.0729H8.32646L9 27Z" fill="#278400"/>
<path d="M58 27L58.6735 29.0729H60.8532L59.0898 30.3541L59.7634 32.4271L58 31.1459L56.2366 32.4271L56.9102 30.3541L55.1468 29.0729H57.3265L58 27Z" fill="#278400"/>
<path d="M9 34L9.67354 36.0729H11.8532L10.0898 37.3541L10.7634 39.4271L9 38.1459L7.23664 39.4271L7.91019 37.3541L6.14683 36.0729H8.32646L9 34Z" fill="#278400"/>
<path d="M58 34L58.6735 36.0729H60.8532L59.0898 37.3541L59.7634 39.4271L58 38.1459L56.2366 39.4271L56.9102 37.3541L55.1468 36.0729H57.3265L58 34Z" fill="#278400"/>
<path opacity="0.971" fill-rule="evenodd" clip-rule="evenodd" d="M46.2662 23.0036C46.8342 22.966 47.0724 23.2252 46.981 23.7814C41.1859 29.9707 35.4311 36.1934 29.7166 42.4496C28.6575 43.2513 27.6678 43.1772 26.7475 42.2273C25.1432 39.0962 23.5671 35.9478 22.019 32.7821C21.8936 31.6138 22.3884 31.2249 23.5036 31.6154C25.3546 33.4859 27.2057 35.3564 29.0568 37.2269C34.7821 32.4589 40.5186 27.7177 46.2662 23.0036Z" fill="#278400"/>
</svg>
