<svg width="67" height="67" viewBox="0 0 67 67" fill="none" xmlns="http://www.w3.org/2000/svg">
<path d="M33.5 1C51.4493 1 66 15.5507 66 33.5C66 51.4493 51.4493 66 33.5 66C15.5507 66 1 51.4493 1 33.5C1 15.5507 15.5507 1 33.5 1Z" stroke="#3054E5" stroke-width="2"/>
<path d="M33.5 3.5C50.0685 3.5 63.5 16.9315 63.5 33.5C63.5 50.0685 50.0685 63.5 33.5 63.5C16.9315 63.5 3.5 50.0685 3.5 33.5C3.5 16.9315 16.9315 3.5 33.5 3.5Z" stroke="#3054E5"/>
<path d="M33.5 14.5C43.9934 14.5 52.5 23.0066 52.5 33.5C52.5 43.9934 43.9934 52.5 33.5 52.5C23.0066 52.5 14.5 43.9934 14.5 33.5C14.5 23.0066 23.0066 14.5 33.5 14.5Z" stroke="#3054E5"/>
<path d="M9 26L9.67354 28.0729H11.8532L10.0898 29.3541L10.7634 31.4271L9 30.1459L7.23664 31.4271L7.91019 29.3541L6.14683 28.0729H8.32646L9 26Z" fill="#3054E5"/>
<path d="M58 26L58.6735 28.0729H60.8532L59.0898 29.3541L59.7634 31.4271L58 30.1459L56.2366 31.4271L56.9102 29.3541L55.1468 28.0729H57.3265L58 26Z" fill="#3054E5"/>
<path d="M9 34L9.67354 36.0729H11.8532L10.0898 37.3541L10.7634 39.4271L9 38.1459L7.23664 39.4271L7.91019 37.3541L6.14683 36.0729H8.32646L9 34Z" fill="#3054E5"/>
<path d="M58 34L58.6735 36.0729H60.8532L59.0898 37.3541L59.7634 39.4271L58 38.1459L56.2366 39.4271L56.9102 37.3541L55.1468 36.0729H57.3265L58 34Z" fill="#3054E5"/>
<path opacity="0.971" fill-rule="evenodd" clip-rule="evenodd" d="M46.2662 23.0036C46.8342 22.966 47.0724 23.2252 46.981 23.7814C41.1859 29.9707 35.4311 36.1934 29.7166 42.4496C28.6575 43.2513 27.6678 43.1772 26.7475 42.2273C25.1432 39.0962 23.5671 35.9478 22.019 32.7821C21.8936 31.6138 22.3884 31.2249 23.5036 31.6154C25.3546 33.4859 27.2057 35.3564 29.0568 37.2269C34.7821 32.4589 40.5186 27.7177 46.2662 23.0036Z" fill="#3054E5"/>
<path d="M12.9468 21.1657L13.5639 20.1645L14.5306 20.0455L15.4206 19.8927L17.1818 19.6539L16.5042 20.753L15.3086 20.9268L14.6313 20.9783L12.9468 21.1657ZM13.9462 17.6447C14.5621 18.0054 15.0152 18.4273 15.3053 18.9107C15.5965 19.3922 15.7342 19.8974 15.7185 20.4263C15.702 20.9523 15.5423 21.461 15.2393 21.9526C14.9341 22.4477 14.5461 22.8254 14.0755 23.0854C13.6049 23.3455 13.0831 23.4634 12.5101 23.4389C11.9371 23.4144 11.3436 23.2224 10.7294 22.8629C10.1135 22.5022 9.65988 22.0812 9.36866 21.5996C9.07744 21.1181 8.94006 20.6144 8.95653 20.0884C8.97115 19.5613 9.13108 19.0502 9.43632 18.555C9.73932 18.0635 10.1261 17.6877 10.5968 17.4276C11.0667 17.1646 11.5881 17.0453 12.1611 17.0698C12.7352 17.0924 13.3302 17.2841 13.9462 17.6447ZM13.2099 18.8391C12.8109 18.6055 12.4381 18.4674 12.0915 18.4249C11.7459 18.3806 11.437 18.4231 11.1646 18.5524C10.8922 18.6817 10.6682 18.8887 10.4927 19.1735C10.3171 19.4582 10.2347 19.7482 10.2455 20.0433C10.2563 20.3384 10.3623 20.6251 10.5636 20.9034C10.766 21.1799 11.0667 21.4349 11.4657 21.6685C11.8647 21.9021 12.237 22.0411 12.5825 22.0854C12.9291 22.1279 13.2387 22.0845 13.5111 21.9552C13.7835 21.8259 14.0074 21.6189 14.183 21.3341C14.3585 21.0493 14.4409 20.7594 14.4301 20.4643C14.4194 20.1692 14.3128 19.8834 14.1104 19.6069C13.9091 19.3286 13.6089 19.0727 13.2099 18.8391Z" fill="#3054E5"/>
<path d="M18.3835 10.2766L19.539 9.51502L22.0174 12.9684C22.2957 13.3562 22.444 13.7582 22.4623 14.1745C22.4824 14.5896 22.381 14.9904 22.158 15.3771C21.9337 15.762 21.5956 16.1034 21.1438 16.4012C20.6901 16.7002 20.2356 16.8812 19.7803 16.9442C19.3237 17.0054 18.8968 16.9527 18.4995 16.7862C18.1022 16.6197 17.7644 16.3426 17.4861 15.9548L15.0077 12.5014L16.1632 11.7399L18.5727 15.0972C18.718 15.2997 18.8926 15.4498 19.0964 15.5476C19.3019 15.6441 19.5206 15.6823 19.7525 15.6621C19.9843 15.6419 20.2114 15.5585 20.4338 15.4119C20.6579 15.2642 20.8204 15.0908 20.9213 14.8918C21.0239 14.6915 21.0641 14.4828 21.0418 14.2654C21.0212 14.0469 20.9383 13.8364 20.7929 13.6339L18.3835 10.2766Z" fill="#3054E5"/>
<path d="M26.4175 13.4084L24.9994 13.8422L25.0893 6.972L26.7947 6.4503L31.0232 11.9995L29.6052 12.4333L26.4397 8.12257L26.3908 8.13753L26.4175 13.4084ZM25.5149 10.9949L28.8645 9.97019L29.2063 10.995L25.8567 12.0197L25.5149 10.9949Z" fill="#3054E5"/>
<path d="M33.4749 12.0057L34.3193 5.51492L35.6929 5.68319L34.9957 11.0425L37.781 11.3837L37.6338 12.5151L33.4749 12.0057Z" fill="#3054E5"/>
<path d="M45.0273 8.204L42.9804 14.4212L41.653 14.0298L43.6999 7.81263L45.0273 8.204Z" fill="#3054E5"/>
<path d="M48.9028 11.5206L49.6225 10.6353L53.9248 13.8584L53.2051 14.7438L51.6013 13.5423L48.1922 17.7359L47.0974 16.9157L50.5065 12.7221L48.9028 11.5206Z" fill="#3054E5"/>
<path d="M56.2799 17.7667L56.9781 19.1506L55.1069 21.6985L55.1357 21.7555L58.3514 21.8728L59.0496 23.2567L54.1562 22.9495L52.0683 23.9471L51.4493 22.7201L53.5372 21.7225L56.2799 17.7667Z" fill="#3054E5"/>
<path d="M7.89818 44.9853L13.3958 41.4329L14.8381 43.575C15.1154 43.9868 15.272 44.3891 15.3079 44.7818C15.3455 45.1735 15.2751 45.536 15.0965 45.8696C14.9208 46.2037 14.6504 46.4888 14.2854 46.7247C13.9203 46.9606 13.5458 47.0909 13.1619 47.1158C12.778 47.1407 12.4089 47.0558 12.0544 46.8613C11.7012 46.6685 11.3841 46.3636 11.1033 45.9465L10.184 44.5812L11.1155 43.9793L11.9098 45.159C12.0586 45.3799 12.2196 45.5371 12.393 45.6305C12.5693 45.7246 12.7502 45.7624 12.9356 45.7441C13.1239 45.7263 13.3085 45.6591 13.4892 45.5423C13.6718 45.4243 13.8067 45.2852 13.8939 45.1248C13.9841 44.9651 14.018 44.7885 13.9955 44.595C13.9749 44.4004 13.8896 44.1917 13.7397 43.969L13.2184 43.1949L8.67111 46.1332L7.89818 44.9853Z" fill="#3054E5"/>
<path d="M12.8767 51.7963L17.6265 47.2927L19.4415 49.1297C19.7889 49.4814 20.0212 49.8423 20.1385 50.2126C20.2588 50.5829 20.2666 50.9439 20.1619 51.2956C20.0603 51.6474 19.8525 51.972 19.5386 52.2696C19.2232 52.5687 18.886 52.7593 18.5269 52.8414C18.1694 52.9221 17.8053 52.893 17.4346 52.7543C17.0654 52.617 16.7041 52.3695 16.3507 52.0118L15.1355 50.7819L15.9426 50.0166L17.0006 51.0874C17.1863 51.2754 17.3668 51.4066 17.5421 51.481C17.7175 51.5554 17.8877 51.5731 18.0528 51.5341C18.2193 51.4965 18.3806 51.4037 18.5368 51.2557C18.6945 51.1061 18.7968 50.949 18.8436 50.7842C18.8919 50.621 18.8818 50.45 18.8132 50.2715C18.7476 50.0929 18.6212 49.9089 18.434 49.7195L17.7781 49.0556L13.8493 52.7808L12.8767 51.7963ZM17.5226 52.2613L16.5044 55.468L15.4307 54.3813L16.4736 51.1996L17.5226 52.2613Z" fill="#3054E5"/>
<path d="M27.132 57.3471C26.8133 57.9858 26.4202 58.4707 25.9526 58.8018C25.4869 59.1339 24.9856 59.3179 24.4487 59.3537C23.9146 59.3885 23.3872 59.2812 22.8664 59.0318C22.3418 58.7806 21.93 58.437 21.6309 58.0009C21.3319 57.5648 21.1731 57.0648 21.1545 56.5008C21.1359 55.9368 21.2855 55.3364 21.6032 54.6996C21.9219 54.061 22.3141 53.5756 22.7798 53.2435C23.2455 52.9114 23.7453 52.7279 24.2793 52.6931C24.8143 52.6564 25.3441 52.7636 25.8688 53.0149C26.3895 53.2642 26.7995 53.607 27.0985 54.0431C27.4004 54.4782 27.5607 54.9777 27.5793 55.5417C27.5998 56.1066 27.4507 56.7084 27.132 57.3471ZM25.8665 56.7411C26.073 56.3274 26.1846 55.9486 26.2014 55.6047C26.2202 55.2618 26.1538 54.963 26.0022 54.7086C25.8506 54.4541 25.6239 54.2546 25.3222 54.1102C25.0205 53.9657 24.7206 53.913 24.4225 53.9522C24.1244 53.9913 23.8421 54.123 23.5754 54.3473C23.3107 54.5724 23.0751 54.8919 22.8687 55.3056C22.6622 55.7193 22.5496 56.0977 22.5309 56.4406C22.514 56.7845 22.5814 57.0837 22.733 57.3381C22.8846 57.5926 23.1113 57.7921 23.413 57.9366C23.7147 58.081 24.0146 58.1337 24.3127 58.0946C24.6108 58.0554 24.8922 57.9233 25.1569 57.6981C25.4236 57.4738 25.6601 57.1548 25.8665 56.7411Z" fill="#3054E5"/>
<path d="M37.2154 56.8403L35.8166 56.8945C35.7837 56.7146 35.7251 56.5559 35.6406 56.4184C35.5561 56.2788 35.4501 56.1614 35.3225 56.0661C35.195 55.9708 35.0493 55.8997 34.8853 55.8528C34.7235 55.8057 34.5489 55.7858 34.3615 55.7931C34.023 55.8062 33.7315 55.9017 33.4871 56.0797C33.2426 56.2554 33.0575 56.5057 32.932 56.8304C32.8065 57.153 32.7528 57.541 32.7711 57.9945C32.79 58.4607 32.875 58.8497 33.0262 59.1616C33.1795 59.4734 33.385 59.7053 33.6428 59.8573C33.9006 60.0094 34.1945 60.079 34.5245 60.0663C34.7097 60.0591 34.8801 60.028 35.0357 59.9729C35.1934 59.9177 35.3321 59.8409 35.4518 59.7425C35.5714 59.6419 35.6689 59.5219 35.7443 59.3825C35.8219 59.243 35.8731 59.0854 35.898 58.9096L37.297 58.8618C37.273 59.1634 37.1942 59.4564 37.0606 59.7409C36.9292 60.0232 36.7465 60.2787 36.5126 60.5074C36.2808 60.7338 36.0004 60.9174 35.6712 61.0581C35.3442 61.1966 34.9709 61.274 34.5515 61.2902C33.9681 61.3128 33.4412 61.201 32.9706 60.9549C32.5022 60.7086 32.1249 60.3405 31.8385 59.8505C31.5543 59.3604 31.3978 58.7599 31.3691 58.0488C31.3403 57.3356 31.45 56.7236 31.698 56.2129C31.9461 55.7022 32.2948 55.3071 32.7441 55.0274C33.1933 54.7456 33.7054 54.5935 34.2802 54.5712C34.6592 54.5566 35.0126 54.5962 35.3405 54.6901C35.6706 54.7839 35.9654 54.9281 36.2248 55.1228C36.4842 55.3153 36.6987 55.5554 36.8681 55.8431C37.0396 56.1307 37.1554 56.4631 37.2154 56.8403Z" fill="#3054E5"/>
<path d="M42.6909 59.7728L39.5366 54.0375L43.4371 51.9788L43.987 52.9786L41.3103 54.3913L42.0619 55.7579L44.5379 54.4511L45.0878 55.4508L42.6117 56.7577L43.3649 58.1271L46.0529 56.7084L46.6027 57.7081L42.6909 59.7728Z" fill="#3054E5"/>
<path d="M50.0214 49.0619C49.8028 48.9218 49.5759 48.8824 49.3407 48.9436C49.1055 49.0049 48.8822 49.1638 48.671 49.4205C48.5275 49.5948 48.4314 49.7619 48.3827 49.9216C48.3324 50.08 48.3242 50.2256 48.3584 50.3584C48.3939 50.4896 48.4668 50.5988 48.5772 50.686C48.6664 50.7619 48.7623 50.8064 48.8647 50.8194C48.9684 50.8307 49.0758 50.8192 49.1869 50.7848C49.2964 50.7491 49.4094 50.6972 49.5261 50.6292C49.6411 50.5599 49.7565 50.48 49.8723 50.3896L50.3563 50.0227C50.5879 49.8418 50.8213 49.6923 51.0566 49.5741C51.2918 49.4559 51.526 49.3775 51.7591 49.339C51.9922 49.3005 52.2219 49.3096 52.4484 49.3663C52.6762 49.4214 52.8978 49.5326 53.1132 49.7C53.4262 49.9499 53.6338 50.2441 53.7359 50.5827C53.8377 50.9182 53.8316 51.2826 53.7177 51.6758C53.6034 52.0661 53.377 52.4668 53.0386 52.8781C52.7028 53.2861 52.3468 53.5913 51.9706 53.7936C51.5957 53.9943 51.214 54.081 50.8254 54.0537C50.4365 54.0234 50.0539 53.8665 49.6776 53.5828L50.5285 52.5488C50.7102 52.6734 50.894 52.7384 51.0798 52.744C51.2652 52.7466 51.4468 52.6986 51.6245 52.6C51.8018 52.4985 51.9663 52.3556 52.118 52.1714C52.2669 51.9904 52.3694 51.8122 52.4256 51.6367C52.4831 51.4595 52.4947 51.2963 52.4603 51.147C52.4259 50.9976 52.3469 50.8741 52.2232 50.7764C52.1078 50.6853 51.9831 50.6424 51.849 50.6478C51.7162 50.6515 51.5694 50.6958 51.4086 50.7805C51.2492 50.8636 51.0711 50.9795 50.8743 51.1281L50.281 51.5674C49.8249 51.9103 49.3833 52.1167 48.9562 52.1865C48.529 52.2563 48.1264 52.1405 47.7482 51.8391C47.4358 51.5951 47.2311 51.2991 47.1341 50.951C47.0384 50.6013 47.0445 50.2301 47.1524 49.8376C47.2603 49.445 47.4659 49.0645 47.7692 48.696C48.0779 48.3209 48.4125 48.045 48.7731 47.8683C49.1351 47.69 49.4966 47.6145 49.8576 47.6418C50.2187 47.669 50.5542 47.801 50.8643 48.0378L50.0214 49.0619Z" fill="#3054E5"/>
<path d="M54.7593 42.4583C54.5157 42.3688 54.2861 42.3794 54.0702 42.4903C53.8544 42.6012 53.6716 42.805 53.5219 43.1018C53.4201 43.3034 53.363 43.4876 53.3504 43.6543C53.336 43.8201 53.3599 43.9642 53.4222 44.0867C53.4854 44.2073 53.5803 44.2982 53.7069 44.3595C53.8105 44.4144 53.9135 44.4371 54.0162 44.4276C54.1198 44.4162 54.2219 44.3817 54.3226 44.3239C54.4214 44.2652 54.5202 44.19 54.6191 44.0982C54.716 44.0055 54.811 43.9023 54.904 43.7888L55.2955 43.3251C55.4817 43.0981 55.6764 42.9012 55.8798 42.7346C56.0832 42.568 56.2943 42.4406 56.513 42.3524C56.7316 42.2642 56.9575 42.2232 57.1906 42.2296C57.4246 42.234 57.6648 42.2947 57.9112 42.4117C58.2708 42.5881 58.5373 42.8308 58.7107 43.1397C58.8832 43.4457 58.9569 43.8033 58.9318 44.2125C58.9057 44.6188 58.7727 45.0598 58.5328 45.5353C58.2947 46.0071 58.0145 46.3827 57.6922 46.6621C57.3708 46.9396 57.0178 47.1072 56.6332 47.1648C56.2476 47.2195 55.8405 47.149 55.4119 46.9533L56.0152 45.7578C56.2194 45.8401 56.4127 45.8638 56.5949 45.829C56.7762 45.7913 56.9426 45.705 57.0942 45.5701C57.2448 45.4324 57.3739 45.257 57.4814 45.044C57.587 44.8347 57.648 44.6382 57.6643 44.4544C57.6817 44.2687 57.6573 44.1066 57.5912 43.9681C57.5251 43.8295 57.4211 43.7259 57.2791 43.6572C57.1468 43.5931 57.0159 43.5782 56.8864 43.6126C56.7579 43.645 56.6246 43.7201 56.4864 43.8379C56.3492 43.9537 56.201 44.1056 56.0417 44.2936L55.5596 44.8519C55.1901 45.286 54.805 45.5836 54.404 45.7445C54.0031 45.9054 53.5854 45.8795 53.1511 45.6668C52.7934 45.496 52.5293 45.2509 52.3587 44.9316C52.1891 44.6104 52.114 44.2462 52.1334 43.839C52.1527 43.4318 52.2699 43.0151 52.4849 42.589C52.7037 42.1553 52.9695 41.8129 53.2823 41.562C53.596 41.3091 53.9317 41.1569 54.2895 41.1053C54.6472 41.0536 55.003 41.1099 55.3568 41.2742L54.7593 42.4583Z" fill="#3054E5"/>
</svg>
