<svg width="53" height="53" viewBox="0 0 53 53" fill="none" xmlns="http://www.w3.org/2000/svg">
<path d="M26.5 0C21.2588 0 16.1353 1.5542 11.7774 4.46605C7.4195 7.37791 4.02293 11.5166 2.0172 16.3589C0.011482 21.2011 -0.513306 26.5294 0.509202 31.6699C1.53171 36.8104 4.05559 41.5322 7.76168 45.2383C11.4678 48.9444 16.1896 51.4683 21.3301 52.4908C26.4706 53.5133 31.7989 52.9885 36.6411 50.9828C41.4834 48.9771 45.6221 45.5805 48.5339 41.2226C51.4458 36.8647 53 31.7412 53 26.5C53 23.02 52.3146 19.574 50.9828 16.3589C49.6511 13.1438 47.6991 10.2224 45.2383 7.76167C42.7776 5.30092 39.8562 3.34894 36.6411 2.01719C33.426 0.685443 29.98 0 26.5 0ZM41.5414 21.828L25.6414 36.403C25.138 36.8646 24.4758 37.114 23.793 37.0992C23.1101 37.0844 22.4594 36.8065 21.9765 36.3235L14.0265 28.3735C13.7734 28.1291 13.5715 27.8367 13.4326 27.5134C13.2937 27.1901 13.2206 26.8423 13.2175 26.4905C13.2145 26.1386 13.2815 25.7896 13.4148 25.464C13.548 25.1383 13.7448 24.8424 13.9936 24.5936C14.2424 24.3448 14.5383 24.148 14.864 24.0148C15.1897 23.8815 15.5386 23.8145 15.8905 23.8175C16.2423 23.8206 16.5901 23.8937 16.9134 24.0326C17.2367 24.1715 17.5291 24.3733 17.7736 24.6264L23.9295 30.7824L37.9586 17.9219C38.4766 17.4468 39.1621 17.197 39.8643 17.2273C40.5665 17.2576 41.2279 17.5656 41.7031 18.0836C42.1782 18.6016 42.428 19.2871 42.3977 19.9893C42.3674 20.6915 42.0594 21.3529 41.5414 21.828Z" fill="#2E7D32"/>
</svg>
